# xmcd CD database file generated by Grip 3.2.0
# 
# Track frame offsets:
#       150
#       19115
#       32210
#       50400
#       73403
#       92620
#       113138
#       123798
#       150770
#       164990
#       183848
#       206570
# 
# Disc length: 2975 seconds
# 
# Revision: 2
# Processed by: cddbd v1.5.1PL0 Copyright (c) Steve Scherf et al.
# Submitted via: Grip 3.2.0
# 
DISCID=9d0b9d0c
DTITLE=Johnnie Johnson, Clayton Love, Jimmy Vaughn - Rockin' Eighty-Eights
DYEAR=1991
DGENRE=Blues
TTITLE0=Frances
TTITLE1=Goin' Home
TTITLE2=New Big-Legged Woman
TTITLE3=Bluebird
TTITLE4=Ida's Song
TTITLE5=Goin' Down Slow
TTITLE6=Hey! Come 'Ere
TTITLE7=Slidin' Serenade
TTITLE8=Don't You Lie To Me
TTITLE9=After Hours
TTITLE10=Ripple Wine Dream
TTITLE11=The Big Question
EXTD=
EXTT0=Johnny Johnson\n
EXTT1=Clayton Love\n
EXTT2=Jimmy Vaughn\n
EXTT3=Johnnie Johnson\n(Vernon Guy - vocal]\n
EXTT4=Jimmy Vaughn\n
EXTT5=Clayton Love\n
EXTT6=Jimmy Vaughn\n
EXTT7=Johnnie Johnson\n
EXTT8=Clayton Love\n
EXTT9=Johnnie Johnson\n
EXTT10=Jimmy Vaughn\n
EXTT11=Clayton Love\n
PLAYORDER=
